<svg class="plot-d6a7b5" fill="currentColor" font-family="system-ui, sans-serif" font-size="10" text-anchor="middle" viewBox="0 0 640 400" style="background: transparent; font-family: sans-serif; font-size: 15px;" xmlns="http://www.w3.org/2000/svg"><style>:where(.plot-d6a7b5) {
  --plot-background: white;
  display: block;
  height: auto;
  height: intrinsic;
  max-width: 100%;
}
:where(.plot-d6a7b5 text),
:where(.plot-d6a7b5 tspan) {
  white-space: pre;
}</style><g aria-label="bar"><rect x="320" width="247.37730555178825" y="53" height="15" fill-opacity="1"></rect><rect x="320" width="202.7338077794908" y="73" height="15" fill-opacity="1"></rect><rect x="320" width="187.7035513218391" y="93" height="15" fill-opacity="1"></rect><rect x="320" width="89.65827234299144" y="113" height="15" fill-opacity="1"></rect><rect x="320" width="81.39169286554733" y="133" height="15" fill-opacity="1"></rect><rect x="320" width="63.090369737809795" y="153" height="15" fill-opacity="1"></rect><rect x="320" width="30.01328036000001" y="173" height="15" fill-opacity="1"></rect><rect x="320" width="19.834672262344952" y="193" height="15" fill-opacity="1"></rect><rect x="320" width="9.622793139941052" y="213" height="15" fill-opacity="1"></rect><rect x="270.54865276239315" width="49.45134723760685" y="233" height="15" fill-opacity="0.45"></rect><rect x="234.2549955330859" width="85.74500446691411" y="253" height="15" fill-opacity="0.45"></rect><rect x="208.16468851665326" width="111.83531148334674" y="273" height="15" fill-opacity="0.45"></rect><rect x="180.909111456814" width="139.090888543186" y="293" height="15" fill-opacity="0.45"></rect><rect x="114.02284795074607" width="205.97715204925393" y="313" height="15" fill-opacity="0.45"></rect><rect x="84.95938941708006" width="235.04061058291995" y="333" height="15" fill-opacity="0.45"></rect></g><g aria-label="rule" stroke="currentColor" stroke-width="2"><line x1="320" x2="320" y1="40" y2="360"></line></g></svg>